      <svg
        xmlns="http://www.w3.org/2000/svg"
        xmlns:xlink="http://www.w3.org/1999/xlink"
        width="30px"
        height="30px"
        viewBox="0 0 30 30"
        version="1.1"
      >
        <g id="surface1">
          <path
            style=" stroke:none;fill-rule:nonzero;fill:rgb(0%,0%,0%);fill-opacity:1;"
            d="M 22.1875 12.015625 L 22.1875 9.359375 C 22.1875 9.046875 21.9375 8.796875 21.628906 8.796875 L 17.914062 8.796875 L 17.914062 6.976562 C 17.914062 6.667969 17.664062 6.417969 17.355469 6.417969 L 13.152344 6.417969 C 12.84375 6.417969 12.589844 6.667969 12.589844 6.976562 L 12.589844 8.796875 L 8.878906 8.796875 C 8.570312 8.796875 8.316406 9.046875 8.316406 9.359375 L 8.316406 12.015625 C 8.316406 12.324219 8.570312 12.574219 8.878906 12.574219 L 9.039062 12.574219 L 9.039062 23.789062 C 9.039062 24.097656 9.289062 24.351562 9.597656 24.351562 L 19.316406 24.351562 C 20.503906 24.351562 21.46875 23.386719 21.46875 22.203125 L 21.46875 12.574219 L 21.628906 12.574219 C 21.9375 12.574219 22.1875 12.324219 22.1875 12.015625 Z M 13.710938 7.535156 L 16.792969 7.535156 L 16.792969 8.796875 L 13.710938 8.796875 Z M 20.347656 22.203125 C 20.347656 22.769531 19.886719 23.230469 19.316406 23.230469 L 10.160156 23.230469 L 10.160156 12.574219 L 20.347656 12.574219 Z M 21.066406 11.453125 L 9.4375 11.453125 L 9.4375 9.917969 L 21.066406 9.917969 Z M 21.066406 11.453125 "
          />
          <path
            style=" stroke:none;fill-rule:nonzero;fill:rgb(0%,0%,0%);fill-opacity:1;"
            d="M 11.890625 14.824219 L 13.011719 14.824219 L 13.011719 21.40625 L 11.890625 21.40625 Z M 11.890625 14.824219 "
          />
          <path
            style=" stroke:none;fill-rule:nonzero;fill:rgb(0%,0%,0%);fill-opacity:1;"
            d="M 14.691406 14.824219 L 15.8125 14.824219 L 15.8125 21.40625 L 14.691406 21.40625 Z M 14.691406 14.824219 "
          />
          <path
            style=" stroke:none;fill-rule:nonzero;fill:rgb(0%,0%,0%);fill-opacity:1;"
            d="M 17.496094 14.824219 L 18.613281 14.824219 L 18.613281 21.40625 L 17.496094 21.40625 Z M 17.496094 14.824219 "
          />
        </g>
      </svg>